# xmcd CD database file
#
# Track frame offsets:
#	150
#	10397
#	20027
#	29385
#	39575
#	51070
#	61693
#	72287
#	83058
#	92441
#	103121
#	112877
#	123447
#	133754
#
# Disc length: 1914 seconds
#
# Revision: 0
# Processed by: cddbd v1.5.2PL0 Copyright (c) Steve Scherf et al.
# Submitted via: CDex 1.51
#
DISCID=b207780e
DTITLE=Bonnie Guitar - Intimate Session
DYEAR=2012
DGENRE=Country
TTITLE0=I'll Step Down
TTITLE1=Maybe
TTITLE2=Where Was I (When We Became Strangers)
TTITLE3=Three On A Match
TTITLE4=Broken Hearted Girl
TTITLE5=Crocodile Tears
TTITLE6=If My Tears Could Talk
TTITLE7=Who Is She
TTITLE8=An Old Fashioned Love
TTITLE9=The Fool
TTITLE10=I'm Tired Of Pride
TTITLE11=Tell Her Bye
TTITLE12=I'll Stop Down
TTITLE13=I'm Tired Of Pride
EXTD=YEAR: 2012
EXTT0=
EXTT1=
EXTT2=
EXTT3=
EXTT4=
EXTT5=
EXTT6=
EXTT7=
EXTT8=
EXTT9=
EXTT10=
EXTT11=
EXTT12=
EXTT13=
PLAYORDER=
